# xmcd
#
# Track frame offsets:
#	150
#	9752
#	19729
#	32356
#	49363
#	60878
#	73227
#	83982
#	97561
#	110439
#	120769
#	133253
#	145098
#	157822
#	169187
#	180199
#	191782
#	202171
#	212390
#	226822
#	236530
#	248377
#	263566
#	274723
#	284958
#	295328
#	304640
#	318694
#
# Disc length: 4392 seconds
#
# Revision: 0
# Processed by: cddbd v1.5.2PL0 Copyright (c) Steve Scherf et al.
# Submitted via: audiograbber 1.83.01
#
DISCID=7811261c
DTITLE=Patsy Cline - Potpouri Vol.1
DYEAR=1997
DGENRE=Country
TTITLE0=Back In Baby's Arms
TTITLE1=Blue Moon Of Kentucky
TTITLE2=Crazy
TTITLE3=Faded Love
TTITLE4=Half As Much
TTITLE5=He Called Me Baby
TTITLE6=I Can See An Angel Walking
TTITLE7=I Can't Help It
TTITLE8=I Fall To Pieces
TTITLE9=I Love You So Much It Hurts
TTITLE10=I'm Walking The Dog (Radio)
TTITLE11=In Care Of The Blues
TTITLE12=It Wasn't God Who Made Honky Tonk Angels (Radio)
TTITLE13=Just Out Of Reach
TTITLE14=Leavin' On Your Mind
TTITLE15=Lonely Street
TTITLE16=Pick Me Up On Your Way Down
TTITLE17=Seven Lonely Days
TTITLE18=She's Got You (False Start)
TTITLE19=Side By Side (Radio)
TTITLE20=Sweet Dreams
TTITLE21=The Wayward Wind
TTITLE22=There He Goes
TTITLE23=Three Cigarettes In An Ashtray
TTITLE24=Too Many Secrets
TTITLE25=Walkin' After Midnight
TTITLE26=You Belong To Me
TTITLE27=Your Cheatin' Heart
EXTD=
EXTT0=
EXTT1=
EXTT2=
EXTT3=
EXTT4=
EXTT5=
EXTT6=
EXTT7=
EXTT8=
EXTT9=
EXTT10=
EXTT11=
EXTT12=
EXTT13=
EXTT14=
EXTT15=
EXTT16=
EXTT17=
EXTT18=
EXTT19=
EXTT20=
EXTT21=
EXTT22=
EXTT23=
EXTT24=
EXTT25=
EXTT26=
EXTT27=
PLAYORDER=
